<svg width="45" height="49" viewBox="0 0 45 49" fill="none" xmlns="http://www.w3.org/2000/svg">
<path d="M15.8906 34.4219L10.7812 38.0704C9.72429 38.8346 8.45267 39.2448 7.14841 39.2422C6.80537 39.2443 6.46285 39.2156 6.12497 39.1563C4.90869 38.9497 3.78075 38.3878 2.88325 37.5413C1.98575 36.6949 1.35884 35.6017 1.08149 34.3996C0.804146 33.1975 0.88877 31.9402 1.32471 30.7861C1.76064 29.632 2.52838 28.6327 3.53122 27.9141L9.14841 23.8907L9.20309 23.8516C9.37118 23.7322 9.57966 23.6841 9.78308 23.7177C9.9865 23.7514 10.1684 23.8641 10.289 24.0313L16.6718 32.9141C16.7322 32.9976 16.7754 33.0922 16.7991 33.1925C16.8227 33.2928 16.8263 33.3967 16.8096 33.4984C16.7929 33.6 16.7562 33.6974 16.7017 33.7848C16.6473 33.8723 16.576 33.9481 16.4922 34.0079L16.4375 34.0469L15.8906 34.4219ZM43.9297 23.9141L38.0078 15.6641L33.4375 9.32036L27.5312 1.06255C27.4556 0.956047 27.3545 0.870209 27.2371 0.812887C27.1197 0.755564 26.9898 0.728587 26.8593 0.734423C26.7297 0.741819 26.604 0.781408 26.4935 0.84961C26.383 0.917813 26.2912 1.01248 26.2265 1.12505C26.164 1.22661 19.9765 11.836 17.6328 14.9375C16.3359 16.6641 12.789 20.2657 10.7109 22.336C11.0615 22.5038 11.3649 22.7561 11.5937 23.0704L17.9687 31.961C18.1961 32.2772 18.3411 32.645 18.3906 33.0313C21.0156 31.7266 25.5703 29.5157 27.6172 28.836C31.289 27.6329 43.3281 25.1563 43.4453 25.125C43.5724 25.0992 43.6912 25.0421 43.7907 24.9589C43.8903 24.8757 43.9676 24.769 44.0156 24.6485C44.063 24.5285 44.08 24.3986 44.065 24.2705C44.05 24.1423 44.0035 24.0199 43.9297 23.9141ZM16.8047 35.6875L11.7265 39.3438L17.1953 46.961C17.43 47.305 17.7312 47.5986 18.081 47.8246C18.4309 48.0506 18.8224 48.2043 19.2325 48.2768C19.6426 48.3493 20.0631 48.3391 20.4692 48.2468C20.8753 48.1545 21.2589 47.982 21.5974 47.7393C21.9358 47.4966 22.2224 47.1888 22.4402 46.8338C22.658 46.4788 22.8026 46.0838 22.8656 45.6721C22.9286 45.2605 22.9087 44.8403 22.807 44.4365C22.7053 44.0326 22.5239 43.6531 22.2734 43.3204L16.8047 35.6875ZM38.9062 10.211C38.2997 9.37496 37.3868 8.81316 36.3672 8.64849C35.887 8.5576 35.3941 8.5576 34.914 8.64849L39.0781 14.461C39.4632 13.8117 39.6518 13.0648 39.6213 12.3105C39.5908 11.5563 39.3424 10.827 38.9062 10.211Z" fill="#F79100"/>
</svg>
