<svg width="190" height="71" viewBox="0 0 190 71" fill="none" xmlns="http://www.w3.org/2000/svg">
<path d="M0 59.217L125.564 59.4641L114.595 71.0002H0V59.217Z" fill="white"/>
<path d="M77.0097 51.1893L93.6992 51.2605V54.7878L73.3915 54.8285L77.0097 51.1893Z" fill="white"/>
<path d="M63.1435 0.723406L93.6994 0.632996V4.16052L59.5473 4.20098L63.1435 0.723406Z" fill="white"/>
<path d="M0 12.6253L3.87068 16.5162L3.6449 37.9503L0 41.316V12.6253Z" fill="white"/>
<path d="M2.73005 0L0 3.18062L0.0532007 5.56601L6.54954 5.59973L6.50084 2.94759L21.3137 3.07522L18.4421 0.0539477L2.73005 0Z" fill="white"/>
<path d="M2.782 54.5434L0 50.8088L0.0532007 48.4234L6.54954 48.3897L6.50084 51.0418L43.609 51.4752L46.886 54.4163L2.782 54.5434Z" fill="white"/>
<path d="M98.5606 5.03958L98.7791 51.8032L110.037 51.7767L113.324 54.8182L186.644 56.1519L189.683 51.4665L189.446 41.0795L186.806 38.1931L186.651 18.2368L189.481 15.5699L189.404 5.51985L186.789 2.85797L145.37 2.76807L142.847 5.59703L98.5606 5.03958Z" fill="#F79100"/>
<path d="M27.3279 47.1761L10.6568 10.4104H21.2658L34.9059 40.4915H36.4214L33.3901 47.1761H27.3279ZM34.9059 37.149L30.3591 27.1222H31.8746L39.4524 10.4104H50.0614L37.9369 37.149H34.9059Z" fill="white"/>
<path d="M159.593 47.1761L142.922 10.4104H153.531L167.173 40.4915H168.686L165.657 47.1761H159.593ZM167.173 37.149L162.625 27.1222H164.141L171.718 10.4104H182.328L170.202 37.149H167.173Z" fill="#231B10"/>
<path d="M82.0562 27.1222V20.4375H64.5911L67.502 23.7797V27.1222H82.0562ZM58.7697 47.1761L55.8588 43.8337V13.7526L58.7697 10.4104H90.7886L93.6995 13.7526V32.1355L89.3333 37.149L93.6995 42.1626V47.1761H82.0562L73.3238 37.149H67.502V47.1761H58.7697Z" fill="white"/>
<path d="M129.64 27.1222V20.4375H112.175L115.084 23.7797V27.1222H129.64ZM106.353 47.1761L103.441 43.8337V13.7526L106.353 10.4104H138.371L141.281 13.7526V32.1355L136.915 37.149L141.281 42.1626V47.1761H129.64L120.906 37.149H115.084V47.1761H106.353Z" fill="#231B10"/>
<path d="M11.7497 65.9011C11.8012 66.0182 11.8816 66.2088 11.9915 66.4725C12.1014 66.7363 12.2188 67.0147 12.3431 67.3077C12.4678 67.6007 12.5869 67.8774 12.7003 68.1374C12.8139 68.3974 12.8926 68.5862 12.9366 68.7033C12.9513 68.7253 12.9513 68.7473 12.9366 68.7693C12.9293 68.7912 12.9073 68.8022 12.8706 68.8022H10.6069C10.5337 68.8022 10.4787 68.7655 10.442 68.6923C10.3981 68.5897 10.3304 68.4303 10.2387 68.2143C10.1473 67.9983 10.0484 67.7692 9.94202 67.5275C9.83587 67.2857 9.73522 67.0567 9.63981 66.8407C9.54466 66.6246 9.47498 66.4653 9.43102 66.3626C9.40904 66.2895 9.3541 66.2527 9.26619 66.2527H5.47491C5.43096 66.2527 5.40898 66.2785 5.40898 66.3297V68.7253C5.40898 68.7765 5.38351 68.8022 5.33206 68.8022H3.27708C3.22588 68.8022 3.18194 68.784 3.14523 68.7473C3.10876 68.7106 3.0683 68.6686 3.02434 68.6209C2.98039 68.5732 2.94392 68.5312 2.91445 68.4945C2.87799 68.4578 2.8595 68.4139 2.8595 68.3627V61.967C2.8595 61.9158 2.87799 61.8718 2.91445 61.8351L3.16719 61.5823C3.20391 61.5456 3.24787 61.5274 3.29907 61.5274H11.1453C11.1968 61.5274 11.2407 61.5456 11.2772 61.5823L12.6289 62.934C12.6656 62.9707 12.6838 63.0109 12.6838 63.0549V64.7253C12.6838 64.7765 12.6656 64.8204 12.6289 64.8571C12.5849 64.8938 12.5265 64.9488 12.453 65.022C12.3799 65.0951 12.3012 65.1741 12.2168 65.2582C12.1326 65.3424 12.0519 65.4231 11.975 65.5C11.8981 65.5769 11.8342 65.6411 11.7827 65.6923C11.7243 65.751 11.7133 65.8204 11.7497 65.9011ZM10.1343 64.7253V63.4175C10.1343 63.3736 10.1161 63.3334 10.0794 63.2967L9.46399 62.6703C9.41279 62.6336 9.36883 62.6153 9.33212 62.6153H5.47491C5.43096 62.6153 5.40898 62.6411 5.40898 62.6923V65.0989C5.40898 65.1209 5.41648 65.1356 5.43097 65.1428C5.4457 65.1576 5.46043 65.1648 5.47491 65.1648H9.69477C9.74622 65.1648 9.79016 65.1466 9.82662 65.1099L10.0794 64.8571C10.1161 64.8204 10.1343 64.7765 10.1343 64.7253Z" fill="#2F2F2F"/>
<path d="M23.7029 67.7144C23.7468 67.7144 23.7688 67.7363 23.7688 67.7803V68.7254C23.7688 68.7766 23.7468 68.8023 23.7029 68.8023H14.3841C14.3329 68.8023 14.2889 68.784 14.2522 68.7473L13.9995 68.4946C13.963 68.4579 13.9445 68.4139 13.9445 68.3627C13.9445 68.2676 13.9445 68.1027 13.9445 67.8682C13.9445 67.6337 13.9445 67.361 13.9445 67.0495C13.9445 66.7381 13.9465 66.4121 13.95 66.0715C13.9538 65.7308 13.9555 65.4049 13.9555 65.0935C13.9555 64.782 13.9575 64.5093 13.961 64.2748C13.9647 64.0402 13.9665 63.8754 13.9665 63.7802C13.9665 63.729 13.9812 63.6886 14.0104 63.6594L16.0764 61.5824C16.1131 61.5457 16.1571 61.5275 16.2083 61.5275H23.6919C23.7433 61.5275 23.7688 61.5532 23.7688 61.6044V62.5495C23.7688 62.5934 23.7433 62.6154 23.6919 62.6154H17.6589C17.6077 62.6154 17.5637 62.6336 17.527 62.6703L16.538 63.6594C16.5015 63.6961 16.483 63.74 16.483 63.7912V64.5495C16.483 64.5642 16.4905 64.5787 16.505 64.5934C16.5125 64.6082 16.5307 64.6154 16.5599 64.6154H22.9666C23.0106 64.6154 23.0326 64.6411 23.0326 64.6923V65.6374C23.0326 65.6886 23.0106 65.7143 22.9666 65.7143H16.5599C16.5087 65.7143 16.483 65.7363 16.483 65.7803V67.6374C16.483 67.6886 16.5087 67.7144 16.5599 67.7144H23.7029Z" fill="#2F2F2F"/>
<path d="M34.997 61.8681C35.0117 61.8974 35.0189 61.9158 35.0189 61.9231V68.3627C35.0189 68.3994 35.0007 68.4434 34.964 68.4946C34.9275 68.5313 34.8836 68.5733 34.8321 68.621C34.7809 68.6687 34.737 68.7106 34.7002 68.7473C34.6638 68.784 34.6198 68.8023 34.5684 68.8023H32.5464C32.4952 68.8023 32.4694 68.7766 32.4694 68.7254V66.3297C32.4694 66.2785 32.4475 66.2528 32.4035 66.2528H27.4364C27.3852 66.2528 27.3595 66.2785 27.3595 66.3297V68.7254C27.3595 68.7766 27.334 68.8023 27.2826 68.8023H25.2606C25.2094 68.8023 25.1654 68.784 25.1287 68.7473L24.8759 68.4946C24.8395 68.4579 24.821 68.4139 24.821 68.3627V63.7912C24.821 63.74 24.8395 63.6961 24.8759 63.6594C24.9274 63.6082 25.0061 63.5292 25.1122 63.4231C25.2186 63.3169 25.3395 63.1941 25.4748 63.055C25.6105 62.9158 25.7551 62.771 25.9089 62.6209C26.0628 62.4708 26.2076 62.3259 26.343 62.1868C26.4786 62.0477 26.6012 61.9248 26.7111 61.8187C26.821 61.7125 26.9017 61.6336 26.9529 61.5824C26.9896 61.5457 27.0298 61.5275 27.0738 61.5275H34.6123C34.6271 61.5275 34.6528 61.5439 34.6893 61.5769C34.726 61.6099 34.7644 61.6446 34.8046 61.6813C34.8451 61.718 34.8853 61.7545 34.9255 61.7912C34.966 61.8279 34.9897 61.8534 34.997 61.8681ZM32.4694 62.6923C32.4694 62.6411 32.4475 62.6154 32.4035 62.6154H28.5353C28.4841 62.6154 28.4402 62.6336 28.4034 62.6703C28.3595 62.7143 28.2918 62.782 28.2002 62.8736C28.1087 62.9653 28.0133 63.0622 27.9144 63.1648C27.8155 63.2675 27.7204 63.3644 27.6287 63.4561C27.5373 63.5477 27.4694 63.6154 27.4254 63.6594C27.3889 63.6886 27.3705 63.7325 27.3705 63.7912V64.066L27.3595 64.8132V65.0879C27.3595 65.1099 27.367 65.1282 27.3815 65.1429C27.4109 65.1576 27.4292 65.1649 27.4364 65.1649H32.4035C32.4475 65.1649 32.4694 65.1391 32.4694 65.0879V62.6923Z" fill="#2F2F2F"/>
<path d="M45.3897 67.7144C45.4337 67.7144 45.4557 67.7363 45.4557 67.7803V68.7254C45.4557 68.7766 45.4337 68.8023 45.3897 68.8023H37.1698C37.1334 68.8023 37.0894 68.784 37.038 68.7473L36.4226 68.1319C36.3861 68.0952 36.3676 68.0513 36.3676 68.0001V61.6044C36.3676 61.5532 36.3933 61.5275 36.4445 61.5275H38.8402C38.8916 61.5275 38.9171 61.5532 38.9171 61.6044C38.9171 61.707 38.9171 61.9028 38.9171 62.1923C38.9171 62.4818 38.9171 62.8187 38.9171 63.2033C38.9171 63.5879 38.9154 63.9963 38.9116 64.4286C38.9081 64.8609 38.9061 65.271 38.9061 65.6594C38.9061 66.0478 38.9061 66.3884 38.9061 66.6814C38.9061 66.9743 38.9061 67.1721 38.9061 67.2748C38.9061 67.3187 38.9246 67.359 38.9611 67.3957L39.2248 67.6594C39.2615 67.6961 39.3055 67.7144 39.3567 67.7144H45.3897Z" fill="#2F2F2F"/>
<path d="M56.299 61.5604L56.5847 61.8571C56.6067 61.8791 56.6177 61.9048 56.6177 61.9341V65.1099C56.6177 65.1466 56.6067 65.1721 56.5847 65.1869C56.5263 65.2455 56.4054 65.3664 56.2221 65.5495C56.039 65.7326 55.8247 65.9469 55.5792 66.1924C55.334 66.4379 55.072 66.6996 54.7935 66.9781C54.5153 67.2566 54.2533 67.5183 54.0078 67.7638C53.7625 68.0093 53.55 68.2236 53.3704 68.4067C53.1911 68.5898 53.0719 68.7106 53.0132 68.7693C52.9913 68.7913 52.9658 68.8023 52.9363 68.8023H46.8154C46.7934 68.8023 46.7751 68.795 46.7604 68.7803C46.7312 68.7511 46.6872 68.7051 46.6285 68.6429C46.5701 68.5808 46.5224 68.5276 46.4857 68.4836C46.4492 68.4469 46.4307 68.4067 46.4307 68.3627C46.4307 68.2456 46.4307 68.0203 46.4307 67.6869C46.4307 67.3535 46.4307 66.9634 46.4307 66.5165C46.4307 66.0697 46.429 65.5952 46.4252 65.0935C46.4217 64.5917 46.4197 64.1227 46.4197 63.6868C46.4197 63.251 46.4197 62.8719 46.4197 62.5495C46.4197 62.227 46.4197 62.022 46.4197 61.9341C46.4197 61.9048 46.4307 61.8791 46.4527 61.8571C46.4674 61.8424 46.4912 61.8169 46.5241 61.7802C46.5571 61.7435 46.5938 61.707 46.634 61.6703C46.6745 61.6336 46.711 61.6006 46.7439 61.5714C46.7769 61.5422 46.8044 61.5275 46.8264 61.5275H48.9033C48.9547 61.5275 48.9802 61.5494 48.9802 61.5934V67.6264C48.9802 67.6776 49.0022 67.7034 49.0462 67.7034H51.1121C51.1416 67.7034 51.1671 67.6924 51.189 67.6704L54.0352 64.8242C54.0572 64.8095 54.0682 64.784 54.0682 64.7473C54.0682 64.6886 54.0682 64.5807 54.0682 64.4231C54.0682 64.2655 54.0682 64.0824 54.0682 63.8736C54.0682 63.6649 54.0682 63.4433 54.0682 63.2088C54.0682 62.9743 54.0682 62.749 54.0682 62.533C54.0682 62.3169 54.0702 62.1246 54.0737 61.956C54.0774 61.7875 54.0792 61.6666 54.0792 61.5934C54.0792 61.5494 54.1012 61.5275 54.1451 61.5275H56.2111C56.2478 61.5275 56.277 61.5384 56.299 61.5604Z" fill="#2F2F2F"/>
<path d="M61.9445 62.6374C61.93 62.6666 61.9225 62.6851 61.9225 62.6923V67.6374C61.9225 67.6886 61.9482 67.7144 61.9994 67.7144H63.6698C63.7213 67.7144 63.7467 67.7363 63.7467 67.7803V68.7254C63.7467 68.7473 63.7395 68.7656 63.7247 68.7803C63.6955 68.795 63.6773 68.8023 63.6698 68.8023H57.6367C57.5856 68.8023 57.5598 68.7766 57.5598 68.7254V67.7803C57.5598 67.7656 57.5673 67.7511 57.5818 67.7363C57.5893 67.7216 57.6075 67.7144 57.6367 67.7144H59.3071C59.3146 67.7144 59.3328 67.7071 59.362 67.6924C59.3768 67.6776 59.384 67.6594 59.384 67.6374V62.6923C59.384 62.6851 59.3768 62.6666 59.362 62.6374C59.3328 62.6226 59.3146 62.6154 59.3071 62.6154H57.6367C57.5856 62.6154 57.5598 62.5934 57.5598 62.5495V61.6044C57.5598 61.5532 57.5856 61.5275 57.6367 61.5275H63.6698C63.6773 61.5275 63.6955 61.5347 63.7247 61.5494C63.7395 61.5642 63.7467 61.5824 63.7467 61.6044V62.5495C63.7467 62.5934 63.7213 62.6154 63.6698 62.6154H61.9994C61.9775 62.6154 61.9592 62.6226 61.9445 62.6374Z" fill="#2F2F2F"/>
<path d="M67.293 63.6594C67.2565 63.6886 67.238 63.7325 67.238 63.7912C67.238 63.8644 67.238 63.9928 67.238 64.1759C67.238 64.3589 67.238 64.566 67.238 64.7967C67.238 65.0275 67.2363 65.271 67.2325 65.5275C67.229 65.784 67.227 66.0275 67.227 66.2583C67.227 66.4891 67.227 66.6961 67.227 66.8792C67.227 67.0623 67.227 67.1941 67.227 67.2748C67.227 67.3187 67.2455 67.359 67.282 67.3957L67.5457 67.6594C67.5824 67.6961 67.6264 67.7144 67.6776 67.7144H74.0733C74.1172 67.7144 74.1392 67.7363 74.1392 67.7803V68.7254C74.1392 68.7766 74.1172 68.8023 74.0733 68.8023H65.4908C65.4543 68.8023 65.4103 68.784 65.3589 68.7473L64.7435 68.1319C64.707 68.0952 64.6885 68.0513 64.6885 68.0001V63.7912C64.6885 63.74 64.707 63.6961 64.7435 63.6594C64.7949 63.6082 64.8736 63.5292 64.9798 63.4231C65.0861 63.3169 65.207 63.1941 65.3424 63.055C65.478 62.9158 65.6226 62.771 65.7765 62.6209C65.9303 62.4708 66.0752 62.3259 66.2105 62.1868C66.3462 62.0477 66.4688 61.9248 66.5787 61.8187C66.6886 61.7125 66.7692 61.6336 66.8204 61.5824C66.8572 61.5457 66.8974 61.5275 66.9413 61.5275H74.0733C74.1172 61.5275 74.1392 61.5532 74.1392 61.6044V62.5495C74.1392 62.5934 74.1172 62.6154 74.0733 62.6154H68.4029C68.3517 62.6154 68.3077 62.6336 68.271 62.6703C68.227 62.7143 68.1594 62.782 68.0677 62.8736C67.9763 62.9653 67.8809 63.0622 67.782 63.1648C67.6831 63.2675 67.5879 63.3644 67.4963 63.4561C67.4049 63.5477 67.3369 63.6154 67.293 63.6594Z" fill="#2F2F2F"/>
<path d="M84.8396 61.5275C84.891 61.5275 84.9165 61.5532 84.9165 61.6044V62.5495C84.9165 62.5567 84.9092 62.5752 84.8945 62.6044C84.8653 62.6191 84.847 62.6264 84.8396 62.6264C84.7591 62.6264 84.6235 62.6264 84.433 62.6264C84.2426 62.6264 84.0246 62.6264 83.7791 62.6264C83.5338 62.6264 83.2736 62.6246 82.9989 62.6209C82.7241 62.6171 82.4641 62.6154 82.2186 62.6154C81.9734 62.6154 81.7571 62.6154 81.5703 62.6154C81.3835 62.6154 81.2498 62.6154 81.1692 62.6154C81.1472 62.6154 81.129 62.6226 81.1142 62.6374C81.0997 62.6666 81.0922 62.6851 81.0922 62.6923V68.7254C81.0922 68.7766 81.0668 68.8023 81.0153 68.8023H78.9933C78.9421 68.8023 78.8982 68.784 78.8614 68.7473L78.5977 68.4836C78.5612 68.4469 78.5428 68.4029 78.5428 68.3517V62.6923C78.5428 62.6411 78.5208 62.6154 78.4768 62.6154H75.1691C75.1179 62.6154 75.0922 62.5934 75.0922 62.5495V61.6044C75.0922 61.5532 75.1179 61.5275 75.1691 61.5275H84.8396Z" fill="#2F2F2F"/>
<path d="M95.2546 62.2088C95.2913 62.2455 95.3095 62.2857 95.3095 62.3297V67.2748C95.3095 67.3187 95.2913 67.359 95.2546 67.3957L93.9029 68.7473C93.8664 68.784 93.826 68.8023 93.782 68.8023H85.9248C85.8808 68.8023 85.8406 68.784 85.8039 68.7473C85.7894 68.7326 85.7692 68.7144 85.7434 68.6924C85.718 68.6704 85.6905 68.6447 85.661 68.6155L85.3094 68.2638C85.2802 68.2346 85.2527 68.2089 85.227 68.1869C85.2015 68.1649 85.1812 68.1467 85.1665 68.1319C85.13 68.0952 85.1116 68.0513 85.1116 68.0001C85.1116 67.9122 85.1116 67.7583 85.1116 67.5385C85.1116 67.3188 85.1116 67.0678 85.1116 66.7858C85.1116 66.5038 85.1136 66.2051 85.1171 65.8902C85.1208 65.5752 85.1226 65.2765 85.1226 64.9945C85.1226 64.7126 85.1226 64.4633 85.1226 64.2473C85.1226 64.0313 85.1226 63.8791 85.1226 63.7912C85.1226 63.74 85.141 63.6961 85.1775 63.6594L87.2544 61.5824C87.2912 61.5457 87.3351 61.5275 87.3863 61.5275H94.5183C94.5697 61.5275 94.6137 61.5457 94.6502 61.5824C94.6869 61.6116 94.7308 61.6556 94.782 61.7143C94.8335 61.773 94.8902 61.8314 94.9524 61.8901C95.0148 61.9488 95.0732 62.0072 95.1282 62.0659C95.1831 62.1246 95.2253 62.1721 95.2546 62.2088ZM92.76 63.055C92.76 63.011 92.7418 62.9708 92.7051 62.9341C92.6978 62.9193 92.6796 62.8974 92.6501 62.8681L92.5073 62.7363C92.4928 62.7215 92.4835 62.7106 92.4798 62.7033C92.4763 62.6961 92.4671 62.6851 92.4523 62.6703C92.4159 62.6336 92.3719 62.6154 92.3205 62.6154H88.8369C88.7857 62.6154 88.7417 62.6336 88.705 62.6703L87.727 63.6594C87.6905 63.6961 87.672 63.74 87.672 63.7912V67.2748C87.672 67.3187 87.6905 67.359 87.727 67.3957C87.7637 67.4324 87.8059 67.4763 87.8534 67.5275C87.9011 67.5787 87.9433 67.6227 87.9797 67.6594C88.0165 67.6961 88.0604 67.7144 88.1116 67.7144H91.9688C92.0203 67.7144 92.0642 67.6961 92.1007 67.6594L92.7051 67.055C92.7418 67.0038 92.76 66.9599 92.76 66.9231V63.055Z" fill="#2F2F2F"/>
<path d="M105.549 65.9011C105.599 66.0183 105.681 66.2088 105.791 66.4726C105.901 66.7363 106.016 67.0148 106.141 67.3078C106.266 67.6007 106.386 67.8775 106.498 68.1374C106.613 68.3974 106.69 68.5863 106.735 68.7034C106.75 68.7254 106.75 68.7473 106.735 68.7693C106.728 68.7913 106.705 68.8023 106.671 68.8023H104.405C104.333 68.8023 104.278 68.7656 104.24 68.6924C104.198 68.5897 104.128 68.4304 104.038 68.2144C103.946 67.9983 103.846 67.7693 103.741 67.5275C103.634 67.2858 103.534 67.0568 103.439 66.8407C103.344 66.6247 103.274 66.4653 103.229 66.3627C103.209 66.2895 103.154 66.2528 103.064 66.2528H99.2736C99.2296 66.2528 99.2076 66.2785 99.2076 66.3297V68.7254C99.2076 68.7766 99.1821 68.8023 99.1307 68.8023H97.0757C97.0245 68.8023 96.9806 68.784 96.9439 68.7473C96.9074 68.7106 96.8669 68.6687 96.823 68.621C96.779 68.5733 96.7426 68.5313 96.7131 68.4946C96.6766 68.4579 96.6581 68.4139 96.6581 68.3627V61.967C96.6581 61.9158 96.6766 61.8719 96.7131 61.8352L96.9658 61.5824C97.0026 61.5457 97.0465 61.5275 97.0977 61.5275H104.945C104.995 61.5275 105.04 61.5457 105.077 61.5824L106.428 62.9341C106.463 62.9708 106.483 63.011 106.483 63.055V64.7253C106.483 64.7765 106.463 64.8205 106.428 64.8572C106.383 64.8939 106.326 64.9488 106.251 65.022C106.179 65.0952 106.099 65.1741 106.016 65.2583C105.931 65.3425 105.851 65.4231 105.774 65.5C105.696 65.577 105.632 65.6411 105.582 65.6923C105.522 65.751 105.512 65.8205 105.549 65.9011ZM103.933 64.7253V63.4176C103.933 63.3736 103.916 63.3334 103.878 63.2967L103.264 62.6703C103.211 62.6336 103.166 62.6154 103.132 62.6154H99.2736C99.2296 62.6154 99.2076 62.6411 99.2076 62.6923V65.0989C99.2076 65.1209 99.2151 65.1357 99.2296 65.1429C99.2443 65.1576 99.2591 65.1649 99.2736 65.1649H103.494C103.544 65.1649 103.589 65.1466 103.626 65.1099L103.878 64.8572C103.916 64.8205 103.933 64.7765 103.933 64.7253Z" fill="#2F2F2F"/>
<path d="M117.689 61.846C117.724 61.8827 117.744 61.9229 117.744 61.9668C117.744 62.062 117.744 62.2213 117.744 62.4449C117.744 62.6684 117.744 62.9064 117.744 63.1592C117.744 63.4119 117.742 63.6519 117.737 63.879C117.734 64.106 117.732 64.2673 117.732 64.3625C117.732 64.4212 117.717 64.4651 117.689 64.4944C117.63 64.553 117.537 64.6444 117.415 64.7691C117.29 64.8937 117.155 65.0256 117.013 65.1647C116.87 65.3038 116.735 65.4357 116.611 65.5603C116.486 65.6849 116.396 65.7763 116.336 65.835C116.308 65.8717 116.263 65.89 116.206 65.89H113.808C113.766 65.89 113.743 65.9157 113.743 65.9669V68.7252C113.743 68.7764 113.718 68.8021 113.666 68.8021H111.633C111.583 68.8021 111.556 68.7764 111.556 68.7252V65.9669C111.556 65.9157 111.531 65.89 111.481 65.89H109.083C109.033 65.89 108.993 65.8717 108.963 65.835L108.688 65.5603L107.887 64.7691L107.612 64.4944C107.574 64.4576 107.557 64.4137 107.557 64.3625V61.9668C107.557 61.9229 107.574 61.8827 107.612 61.846L107.667 61.791L107.799 61.6482L107.854 61.5932C107.882 61.5565 107.927 61.5383 107.984 61.5383H110.03C110.072 61.5383 110.094 61.5602 110.094 61.6042V62.0877L110.107 63.5163V63.9998C110.107 64.0585 110.119 64.1025 110.149 64.1317C110.187 64.1609 110.234 64.2049 110.292 64.2636C110.352 64.3223 110.409 64.3807 110.469 64.4394C110.527 64.4981 110.586 64.5548 110.644 64.6097C110.704 64.6647 110.746 64.7104 110.776 64.7471C110.806 64.7838 110.849 64.802 110.909 64.802H114.393C114.45 64.802 114.495 64.7838 114.523 64.7471L115.139 64.1317C115.174 64.095 115.194 64.051 115.194 63.9998V63.5163L115.204 62.0877V61.6042C115.204 61.5602 115.229 61.5383 115.282 61.5383H117.315C117.372 61.5383 117.417 61.5565 117.447 61.5932C117.462 61.6005 117.47 61.6079 117.475 61.6152C117.477 61.6224 117.487 61.6334 117.502 61.6482L117.635 61.791C117.647 61.8057 117.659 61.8147 117.667 61.8185C117.674 61.8222 117.682 61.8312 117.689 61.846Z" fill="#2F2F2F"/>
</svg>
