<svg width="25" height="26" viewBox="0 0 25 26" fill="none" xmlns="http://www.w3.org/2000/svg">
<path d="M12.5031 0.500122H12.4969C5.60469 0.500122 0 6.10637 0 13.0001C0 15.7345 0.88125 18.2689 2.37969 20.3267L0.821875 24.9704L5.62656 23.4345C7.60313 24.7439 9.96094 25.5001 12.5031 25.5001C19.3953 25.5001 25 19.8923 25 13.0001C25 6.10793 19.3953 0.500122 12.5031 0.500122ZM19.7766 18.1517C19.475 19.0032 18.2781 19.7095 17.3234 19.9157C16.6703 20.0548 15.8172 20.1657 12.9453 18.9751C9.27187 17.4532 6.90625 13.7204 6.72188 13.4782C6.54531 13.2361 5.2375 11.5017 5.2375 9.70793C5.2375 7.91418 6.14844 7.04075 6.51562 6.66575C6.81719 6.35793 7.31562 6.21731 7.79375 6.21731C7.94844 6.21731 8.0875 6.22512 8.2125 6.23137C8.57969 6.247 8.76406 6.26887 9.00625 6.84856C9.30781 7.57512 10.0422 9.36887 10.1297 9.55325C10.2188 9.73762 10.3078 9.98762 10.1828 10.2298C10.0656 10.4798 9.9625 10.5907 9.77812 10.8032C9.59375 11.0157 9.41875 11.1782 9.23438 11.4064C9.06563 11.6048 8.875 11.8173 9.0875 12.1845C9.3 12.5439 10.0344 13.7423 11.1156 14.7048C12.5109 15.947 13.6422 16.3439 14.0469 16.5126C14.3484 16.6376 14.7078 16.6079 14.9281 16.3736C15.2078 16.072 15.5531 15.572 15.9047 15.0798C16.1547 14.7267 16.4703 14.6829 16.8016 14.8079C17.1391 14.9251 18.925 15.8079 19.2922 15.9907C19.6594 16.1751 19.9016 16.2626 19.9906 16.4173C20.0781 16.572 20.0781 17.2986 19.7766 18.1517Z" fill="white"/>
</svg>
