<svg width="58" height="72" viewBox="0 0 58 72" fill="none" xmlns="http://www.w3.org/2000/svg">
<path d="M8.15625 72V0.599976H30.9562C40.1562 0.599976 46.8563 2.46663 51.0563 6.19997C55.3229 9.9333 57.4562 15.0666 57.4562 21.6C57.4562 25.4666 56.5896 29.1 54.8563 32.5C53.1229 35.9 50.2229 38.6333 46.1562 40.7C42.1562 42.7666 36.6896 43.8 29.7562 43.8H23.2562V72H8.15625ZM0.15625 61.3V51.6H38.6562V61.3H0.15625ZM0.15625 43.8V31.4H29.4562V43.8H0.15625ZM28.2562 31.4C31.1229 31.4 33.5896 31.1 35.6562 30.5C37.7229 29.8333 39.3229 28.8 40.4562 27.4C41.5896 26 42.1562 24.2333 42.1562 22.1C42.1562 19.0333 41.1896 16.7666 39.2562 15.3C37.3229 13.7666 34.2896 13 30.1562 13H23.2562V31.4H28.2562Z" fill="#F79100"/>
</svg>
