<svg width="51" height="51" viewBox="0 0 51 51" fill="none" xmlns="http://www.w3.org/2000/svg">
<path d="M31.4494 12.9634V15.8052C29.4332 16.0784 27.5824 16.9048 26.0461 18.1337V22.4637H43.1378C41.5448 18.9158 38.2743 16.3329 34.3878 15.8065V12.9634H31.4494ZM6.76824 20.8966H10.7819V28.6301H6.76824V20.8966ZM14.6036 13.2611V17.9436C13.8922 19.5453 13.8769 19.5978 13.7201 19.876V28.63H23.1078V19.8427C22.9562 19.5651 22.9475 19.5294 22.243 17.9436V13.2611H14.6036ZM26.0461 28.63H44.1818C44.1818 27.3104 44.2127 26.5594 44.0222 25.4019H26.0461V28.63ZM0.5 50.4748H20.3498L0.5 35.2694V50.4748ZM25.1822 50.4748H25.8932L50.4472 31.5682H0.5L25.1822 50.4748ZM50.4344 50.4748L50.4462 35.2773L30.709 50.4748H50.4344Z" fill="#F79100"/>
<path d="M0.5 0.524902V28.6301H3.43823V8.81467C6.00327 10.4018 9.37873 9.8951 11.3715 7.55123C13.846 10.4615 18.3046 10.4545 20.7738 7.55123C23.2348 10.4411 27.6804 10.4784 30.1762 7.55123C32.6491 10.4589 37.1082 10.4567 39.5786 7.55123C41.5829 9.90879 44.9817 10.4048 47.5491 8.79219L47.5158 28.6302H50.4541L50.5 0.524902H0.5Z" fill="#F79100"/>
</svg>
