<svg width="41" height="41" viewBox="0 0 41 41" fill="none" xmlns="http://www.w3.org/2000/svg">
<path d="M20.5 0.5C15.9083 0.5 12.1666 4.24167 12.1666 8.83333C12.1666 13.425 15.9083 17.1667 20.5 17.1667C25.0916 17.1667 28.8333 13.425 28.8333 8.83333C28.8333 4.24167 25.0916 0.5 20.5 0.5ZM21.3333 12.85V13.45C21.3333 13.9083 20.9583 14.2833 20.5 14.2833C20.0416 14.2833 19.6666 13.9083 19.6666 13.45V12.85C19.3442 12.7366 19.0484 12.5583 18.7976 12.3261C18.5467 12.0939 18.3462 11.8128 18.2083 11.5C18.025 11.075 18.2166 10.5833 18.6416 10.4C19.0666 10.2167 19.5583 10.4083 19.7416 10.8333C19.8666 11.1333 20.1666 11.3333 20.5 11.3333C20.9583 11.3333 21.3333 10.9583 21.3333 10.5C21.3333 10.0417 20.9583 9.66667 20.5 9.66667C19.125 9.66667 18 8.54167 18 7.16667C18 6.08333 18.7 5.16667 19.6666 4.81667V4.21667C19.6666 3.75833 20.0416 3.38333 20.5 3.38333C20.9583 3.38333 21.3333 3.75833 21.3333 4.21667V4.83333C21.8833 5.03333 22.3666 5.4 22.6666 5.91667C22.9 6.31667 22.7583 6.825 22.3666 7.05833C22.2721 7.114 22.1674 7.1504 22.0587 7.16545C21.9501 7.18049 21.8395 7.17388 21.7333 7.146C21.6272 7.11811 21.5277 7.0695 21.4404 7.00297C21.3532 6.93643 21.2799 6.85329 21.225 6.75833C21.1531 6.62915 21.048 6.52158 20.9205 6.44683C20.793 6.37209 20.6478 6.33289 20.5 6.33333C20.0416 6.33333 19.6666 6.70833 19.6666 7.16667C19.6666 7.625 20.0416 8 20.5 8C21.875 8 23 9.125 23 10.5C23 11.5833 22.3 12.5 21.3333 12.85Z" fill="#F79100"/>
<path d="M7.16663 30.9167C9.23769 30.9167 10.9166 29.2378 10.9166 27.1667C10.9166 25.0957 9.23769 23.4167 7.16663 23.4167C5.09556 23.4167 3.41663 25.0957 3.41663 27.1667C3.41663 29.2378 5.09556 30.9167 7.16663 30.9167Z" fill="#F79100"/>
<path d="M10.5 38.8333V39.6667C10.5 39.9583 10.5583 40.2417 10.65 40.5H1.33333C0.875 40.5 0.5 40.125 0.5 39.6667V38.8333C0.5 35.1583 3.49167 32.1667 7.16667 32.1667C8.94167 32.1667 10.55 32.8667 11.75 34.0083C10.9583 35.4333 10.5 37.0833 10.5 38.8333ZM28.8333 38.8333V39.6667C28.8333 40.125 28.4583 40.5 28 40.5H13C12.5417 40.5 12.1667 40.125 12.1667 39.6667V38.8333C12.1667 34.2417 15.9083 30.5 20.5 30.5C25.0917 30.5 28.8333 34.2417 28.8333 38.8333Z" fill="#F79100"/>
<path d="M20.5 29.2499C23.0313 29.2499 25.0833 27.1979 25.0833 24.6666C25.0833 22.1353 23.0313 20.0833 20.5 20.0833C17.9687 20.0833 15.9166 22.1353 15.9166 24.6666C15.9166 27.1979 17.9687 29.2499 20.5 29.2499Z" fill="#F79100"/>
<path d="M33.8334 30.9167C35.9044 30.9167 37.5834 29.2378 37.5834 27.1667C37.5834 25.0957 35.9044 23.4167 33.8334 23.4167C31.7623 23.4167 30.0834 25.0957 30.0834 27.1667C30.0834 29.2378 31.7623 30.9167 33.8334 30.9167Z" fill="#F79100"/>
<path d="M40.5 38.8334V39.6667C40.5 40.1251 40.125 40.5001 39.6667 40.5001H30.35C30.4417 40.2417 30.5 39.9584 30.5 39.6667V38.8334C30.5 37.0834 30.0417 35.4334 29.25 34.0084C30.4831 32.8264 32.1252 32.1666 33.8333 32.1667C37.5083 32.1667 40.5 35.1584 40.5 38.8334Z" fill="#F79100"/>
</svg>
