<svg width="47" height="47" viewBox="0 0 47 47" fill="none" xmlns="http://www.w3.org/2000/svg">
<path d="M17.6667 41.0001C17.6667 42.1538 18.0088 43.2816 18.6498 44.2409C19.2907 45.2002 20.2018 45.9479 21.2677 46.3894C22.3336 46.8309 23.5065 46.9464 24.638 46.7213C25.7696 46.4962 26.809 45.9407 27.6248 45.1249C28.4406 44.3091 28.9962 43.2697 29.2213 42.1381C29.4463 41.0065 29.3308 39.8337 28.8893 38.7678C28.4478 37.7019 27.7001 36.7908 26.7408 36.1498C25.7815 35.5089 24.6537 35.1667 23.5 35.1667C21.9535 35.1687 20.4709 35.7839 19.3774 36.8775C18.2839 37.971 17.6687 39.4536 17.6667 41.0001ZM25.1667 39.3334C25.1667 39.1124 25.2545 38.9004 25.4107 38.7442C25.567 38.5879 25.779 38.5001 26 38.5001C26.221 38.5001 26.433 38.5879 26.5893 38.7442C26.7455 38.9004 26.8333 39.1124 26.8333 39.3334V40.1667C26.8333 40.3878 26.7455 40.5997 26.5893 40.756C26.433 40.9123 26.221 41.0001 26 41.0001C25.779 41.0001 25.567 40.9123 25.4107 40.756C25.2545 40.5997 25.1667 40.3878 25.1667 40.1667V39.3334ZM25.1667 42.6667C25.3877 42.6667 25.5996 42.7545 25.7559 42.9108C25.9122 43.0671 26 43.2791 26 43.5001C26 43.7211 25.9122 43.9331 25.7559 44.0893C25.5996 44.2456 25.3877 44.3334 25.1667 44.3334H21.8333C21.6123 44.3334 21.4004 44.2456 21.2441 44.0893C21.0878 43.9331 21 43.7211 21 43.5001C21 43.2791 21.0878 43.0671 21.2441 42.9108C21.4004 42.7545 21.6123 42.6667 21.8333 42.6667H25.1667ZM20.1667 39.3334C20.1667 39.1124 20.2545 38.9004 20.4107 38.7442C20.567 38.5879 20.779 38.5001 21 38.5001C21.221 38.5001 21.433 38.5879 21.5893 38.7442C21.7455 38.9004 21.8333 39.1124 21.8333 39.3334V40.1667C21.8333 40.3878 21.7455 40.5997 21.5893 40.756C21.433 40.9123 21.221 41.0001 21 41.0001C20.779 41.0001 20.567 40.9123 20.4107 40.756C20.2545 40.5997 20.1667 40.3878 20.1667 40.1667V39.3334ZM41 35.1667C39.8463 35.1667 38.7185 35.5089 37.7592 36.1498C36.7999 36.7908 36.0522 37.7019 35.6107 38.7678C35.1692 39.8337 35.0537 41.0065 35.2788 42.1381C35.5038 43.2697 36.0594 44.3091 36.8752 45.1249C37.691 45.9407 38.7304 46.4962 39.862 46.7213C40.9935 46.9464 42.1664 46.8309 43.2323 46.3894C44.2982 45.9479 45.2093 45.2002 45.8502 44.2409C46.4912 43.2816 46.8333 42.1538 46.8333 41.0001C46.8314 39.4536 46.2161 37.971 45.1226 36.8775C44.0291 35.7839 42.5465 35.1687 41 35.1667ZM37.6667 40.1667V39.3334C37.6667 39.1124 37.7545 38.9004 37.9107 38.7442C38.067 38.5879 38.279 38.5001 38.5 38.5001C38.721 38.5001 38.933 38.5879 39.0893 38.7442C39.2455 38.9004 39.3333 39.1124 39.3333 39.3334V40.1667C39.3333 40.3878 39.2455 40.5997 39.0893 40.756C38.933 40.9123 38.721 41.0001 38.5 41.0001C38.279 41.0001 38.067 40.9123 37.9107 40.756C37.7545 40.5997 37.6667 40.3878 37.6667 40.1667ZM43.3092 44.0317C43.0367 44.3849 42.6868 44.6708 42.2865 44.8676C41.8862 45.0643 41.4461 45.1666 41 45.1666C40.5539 45.1666 40.1138 45.0643 39.7135 44.8676C39.3132 44.6708 38.9633 44.3849 38.6908 44.0317C38.5498 43.8613 38.4823 43.6419 38.5031 43.4217C38.5239 43.2015 38.6313 42.9986 38.8017 42.8576C38.9721 42.7166 39.1915 42.649 39.4117 42.6698C39.6319 42.6906 39.8348 42.798 39.9758 42.9684C40.0946 43.128 40.2491 43.2577 40.4269 43.347C40.6048 43.4364 40.801 43.4829 41 43.4829C41.199 43.4829 41.3952 43.4364 41.5731 43.347C41.7509 43.2577 41.9054 43.128 42.0242 42.9684C42.094 42.884 42.1797 42.8142 42.2765 42.763C42.3733 42.7118 42.4793 42.6801 42.5883 42.6698C42.6973 42.6595 42.8073 42.6708 42.912 42.703C43.0167 42.7352 43.114 42.7878 43.1983 42.8576C43.2827 42.9274 43.3525 43.0131 43.4037 43.1099C43.455 43.2067 43.4866 43.3127 43.4969 43.4217C43.5072 43.5307 43.4959 43.6407 43.4637 43.7454C43.4315 43.8501 43.379 43.9474 43.3092 44.0317ZM44.3333 40.1667C44.3333 40.3878 44.2455 40.5997 44.0893 40.756C43.933 40.9123 43.721 41.0001 43.5 41.0001C43.279 41.0001 43.067 40.9123 42.9107 40.756C42.7545 40.5997 42.6667 40.3878 42.6667 40.1667V39.3334C42.6667 39.1124 42.7545 38.9004 42.9107 38.7442C43.067 38.5879 43.279 38.5001 43.5 38.5001C43.721 38.5001 43.933 38.5879 44.0893 38.7442C44.2455 38.9004 44.3333 39.1124 44.3333 39.3334V40.1667ZM21.1 12.0934C21.3142 10.9814 21.5882 9.88173 21.9208 8.79924C22.0328 8.46871 22.2456 8.18165 22.5294 7.97854C22.8132 7.77544 23.1535 7.66653 23.5025 7.66717C23.8515 7.66782 24.1914 7.77798 24.4745 7.98214C24.7575 8.18629 24.9693 8.47413 25.08 8.80507C25.4126 9.88554 25.6863 10.9833 25.9 12.0934C26.8324 12.289 27.7368 12.5997 28.5925 13.0184L32.75 5.81007C29.9025 4.29378 26.726 3.50073 23.5 3.50073C20.274 3.50073 17.0975 4.29378 14.25 5.81007L18.4167 13.0142C19.2697 12.5977 20.171 12.2884 21.1 12.0934Z" fill="#F79100"/>
<path d="M23.5002 27.6668C25.8013 27.6668 27.6668 25.8013 27.6668 23.5002C27.6668 21.199 25.8013 19.3335 23.5002 19.3335C21.199 19.3335 19.3335 21.199 19.3335 23.5002C19.3335 25.8013 21.199 27.6668 23.5002 27.6668Z" fill="#F79100"/>
<path d="M23.5001 0.166748C17.3139 0.173806 11.383 2.6344 7.00872 7.00872C2.6344 11.383 0.173806 17.3139 0.166748 23.5001V26.0001C0.166748 26.4421 0.342343 26.866 0.654903 27.1786C0.967464 27.4912 1.39139 27.6668 1.83341 27.6668H19.4259C18.8016 27.0587 18.3219 26.3183 18.0221 25.5001C17.7223 24.6818 17.6101 23.8067 17.6937 22.9393C17.7774 22.0719 18.0548 21.2343 18.5055 20.4885C18.9562 19.7427 19.5686 19.1076 20.2976 18.6301C20.4059 16.8318 20.5784 15.2517 20.7868 13.8851C18.9165 14.4173 17.2411 15.4813 15.964 16.9476C14.6869 18.4139 13.8631 20.2195 13.5926 22.1451C13.5143 22.7431 13.2238 23.2931 12.7739 23.6948C12.324 24.0965 11.7448 24.3231 11.1417 24.3334H4.37508C4.03045 24.3333 3.68958 24.2617 3.37403 24.1231C3.05847 23.9845 2.77508 23.7821 2.54175 23.5284C2.3133 23.2792 2.13906 22.9853 2.03005 22.6653C1.92103 22.3453 1.87961 22.0061 1.90842 21.6693C2.36954 16.2612 4.84367 11.2231 8.84134 7.5518C12.839 3.88049 18.069 1.84332 23.4968 1.84332C28.9245 1.84332 34.1545 3.88049 38.1522 7.5518C42.1498 11.2231 44.624 16.2612 45.0851 21.6693C45.1136 22.0056 45.0721 22.3442 44.9631 22.6636C44.854 22.983 44.6799 23.2764 44.4518 23.5251C44.2184 23.7787 43.935 23.9812 43.6195 24.1198C43.3039 24.2583 42.9631 24.3299 42.6184 24.3301H35.8584C35.2562 24.3201 34.6776 24.0942 34.2279 23.6935C33.7782 23.2927 33.4874 22.7439 33.4084 22.1467C33.1385 20.2203 32.3148 18.4137 31.0375 16.9464C29.7603 15.4792 28.0843 14.4145 26.2134 13.8818C26.4218 15.2484 26.5942 16.8284 26.7026 18.6268C27.4321 19.1042 28.0451 19.7394 28.4962 20.4855C28.9472 21.2317 29.2248 22.0696 29.3085 22.9375C29.3922 23.8054 29.2798 24.6809 28.9796 25.4995C28.6794 26.3181 28.1991 27.0587 27.5743 27.6668H45.1668C45.6088 27.6668 46.0327 27.4912 46.3453 27.1786C46.6578 26.866 46.8334 26.4421 46.8334 26.0001V23.5001C46.8264 17.3139 44.3658 11.383 39.9914 7.00872C35.6171 2.6344 29.6863 0.173806 23.5001 0.166748ZM6.00008 46.8334C7.15381 46.8334 8.28162 46.4913 9.24091 45.8503C10.2002 45.2094 10.9479 44.2983 11.3894 43.2324C11.8309 42.1665 11.9464 40.9936 11.7213 39.8621C11.4962 38.7305 10.9407 37.6911 10.1249 36.8753C9.30907 36.0595 8.26966 35.5039 7.13811 35.2788C6.00655 35.0538 4.83366 35.1693 3.76776 35.6108C2.70186 36.0523 1.79082 36.8 1.14984 37.7593C0.508867 38.7185 0.166748 39.8464 0.166748 41.0001C0.168733 42.5466 0.783951 44.0292 1.87748 45.1227C2.97102 46.2162 4.4536 46.8314 6.00008 46.8334ZM7.66675 39.3334C7.66675 39.1124 7.75455 38.9004 7.91083 38.7442C8.06711 38.5879 8.27907 38.5001 8.50008 38.5001C8.7211 38.5001 8.93306 38.5879 9.08934 38.7442C9.24562 38.9004 9.33342 39.1124 9.33342 39.3334V40.1668C9.33342 40.3878 9.24562 40.5997 9.08934 40.756C8.93306 40.9123 8.7211 41.0001 8.50008 41.0001C8.27907 41.0001 8.06711 40.9123 7.91083 40.756C7.75455 40.5997 7.66675 40.3878 7.66675 40.1668V39.3334ZM8.30925 42.9684C8.37907 43.0528 8.43159 43.1501 8.4638 43.2548C8.49602 43.3594 8.5073 43.4694 8.49701 43.5785C8.48672 43.6875 8.45505 43.7934 8.40382 43.8902C8.35259 43.987 8.28279 44.0728 8.19842 44.1426C8.11404 44.2124 8.01674 44.2649 7.91207 44.2971C7.8074 44.3294 7.69741 44.3406 7.58838 44.3303C7.47935 44.3201 7.37341 44.2884 7.27662 44.2372C7.17982 44.1859 7.09407 44.1161 7.02425 44.0318C6.90544 43.8721 6.75096 43.7425 6.57314 43.6531C6.39532 43.5638 6.19908 43.5173 6.00008 43.5173C5.80109 43.5173 5.60485 43.5638 5.42702 43.6531C5.2492 43.7425 5.09472 43.8721 4.97592 44.0318C4.9061 44.1161 4.82034 44.1859 4.72355 44.2372C4.62675 44.2884 4.52082 44.3201 4.41179 44.3303C4.30275 44.3406 4.19276 44.3294 4.08809 44.2971C3.98342 44.2649 3.88612 44.2124 3.80175 44.1426C3.71737 44.0728 3.64758 43.987 3.59634 43.8902C3.54511 43.7934 3.51345 43.6875 3.50315 43.5785C3.49286 43.4694 3.50415 43.3594 3.53636 43.2548C3.56858 43.1501 3.6211 43.0528 3.69092 42.9684C3.96341 42.6153 4.31327 42.3293 4.71359 42.1326C5.11391 41.9358 5.55403 41.8335 6.00008 41.8335C6.44614 41.8335 6.88625 41.9358 7.28657 42.1326C7.6869 42.3293 8.03676 42.6153 8.30925 42.9684ZM2.66675 39.3334C2.66675 39.1124 2.75455 38.9004 2.91083 38.7442C3.06711 38.5879 3.27907 38.5001 3.50008 38.5001C3.7211 38.5001 3.93306 38.5879 4.08934 38.7442C4.24562 38.9004 4.33342 39.1124 4.33342 39.3334V40.1668C4.33342 40.3878 4.24562 40.5997 4.08934 40.756C3.93306 40.9123 3.7211 41.0001 3.50008 41.0001C3.27907 41.0001 3.06711 40.9123 2.91083 40.756C2.75455 40.5997 2.66675 40.3878 2.66675 40.1668V39.3334Z" fill="#F79100"/>
<path d="M35.0592 21.9218C35.0804 22.1215 35.1729 22.3067 35.3197 22.4436C35.4665 22.5805 35.6578 22.6597 35.8584 22.6668H42.6251C42.738 22.6667 42.8497 22.6431 42.9531 22.5976C43.0565 22.5522 43.1494 22.4858 43.2259 22.4027C43.2991 22.3243 43.3549 22.2315 43.3898 22.1301C43.4247 22.0287 43.4379 21.9211 43.4284 21.8143C43.1588 18.7467 42.1854 15.7824 40.5841 13.152C38.9827 10.5216 36.7964 8.29585 34.1951 6.64768L30.0334 13.8577C31.389 14.7751 32.5369 15.9669 33.4026 17.3561C34.2684 18.7452 34.8328 20.3007 35.0592 21.9218ZM3.57173 21.811C3.56201 21.9183 3.57502 22.0265 3.60991 22.1284C3.6448 22.2304 3.70079 22.3238 3.77423 22.4027C3.85072 22.4858 3.9436 22.5522 4.047 22.5976C4.15041 22.6431 4.2621 22.6667 4.37506 22.6668H11.1417C11.3432 22.6598 11.5354 22.5799 11.6825 22.442C11.8296 22.3041 11.9217 22.1175 11.9417 21.9168C12.1686 20.2946 12.734 18.7382 13.6011 17.3486C14.4682 15.9589 15.6177 14.767 16.9751 13.8502L12.8084 6.64185C10.2061 8.28985 8.0189 10.5158 6.41691 13.1467C4.81493 15.7776 3.8413 18.7426 3.57173 21.811ZM22.0201 17.8643C22.9892 17.601 24.011 17.601 24.9801 17.8643C24.8093 14.9626 24.3088 12.0896 23.4884 9.30101C22.6895 12.0937 22.1972 14.9651 22.0201 17.8643Z" fill="#F79100"/>
</svg>
